<?xml version="1.0" encoding="utf-8"?>
<!-- Generator: Adobe Illustrator 25.4.1, SVG Export Plug-In . SVG Version: 6.00 Build 0)  -->
<svg version="1.1" id="Layer_1" xmlns="http://www.w3.org/2000/svg" xmlns:xlink="http://www.w3.org/1999/xlink" x="0px" y="0px"
	 viewBox="0 0 300 200" style="enable-background:new 0 0 300 200;" xml:space="preserve">
<style type="text/css">
	.st0{fill:#A0CDEB;}
	.st1{fill:#05504B;}
	.st2{fill:#F5E1B4;}
	.st3{fill:#8C051E;}
	.st4{fill:#F50A37;}
	.st5{fill:#69A09B;}
</style>
<g>
	<g>
		<path class="st0" d="M191.6,167.1c2.9-4.6,4.4-5.6,9.1-8.3c20.5-11.6,37.7-29.5,48.9-50.7c5.2-10,9.3-21.2,7.7-32.4
			c-1.9-13.7-11.9-24.7-22.9-32.4c-12.3-8.6-27.1-14.5-42-13c-14.9,1.5-29.6,11.5-34,26.2c-3.6,12.1-0.1,25.6-3.8,37.7
			c-6.4,21.1-30.2,29.3-49.7,38.4c-10.2,4.8-21.1,12.4-21.8,23.9c-0.4,6.4,2.7,12.4,6.4,17.5c12.1,16.5,32.6,26,52.7,24.7
			C162.2,197.3,181.4,185.1,191.6,167.1"/>
	</g>
	<g>
		<path class="st1" d="M179.5,88.4c-4,13.8-0.5,41.2,5.8,41.2c7.6,0,14.1-3,17.9-6.3l9.4-4.7L201,95.8L179.5,88.4z"/>
	</g>
	<path class="st2" d="M187.8,63c0,0-12.4-1.5-16.9,7.6c-2.7,5.4-1.8,12.7-1.8,15.7c0,3-5.1,3.3-5.1,6.1c0,2.8,4.8,3.5,6.8,5.6
		c0.8,0.8,0.1,3,0.5,5.8c1.8,0.4,6.1-0.2,6.2,0.2c0.4,1.3-5.5,3.4-5.5,3.3c0.2,3.4,0.7,6.4,2.8,6.4c4.3,0,9.7-1.3,13-1.3
		c3.3,0,5,7.8,5.6,10.2c0.8,3.1,8.8-6.7,8.8-6.7L187.8,63z"/>
	<path class="st2" d="M119.8,64.2c-12.5,0-32.7,8.7-37.6,13.7c-3.5,3.5,4.8,20,14,28.9c-1.3,11.9-2.6,24.8-2.6,27.1
		c0,4.5,21.2,8.3,21.2,1.9c0-1.2-1-12.5-2-23.6c2.4,0,5.1,0,7.1,0c4,0,10.3-0.9,10.3-4.7c0-0.9-0.3-2.3-0.7-3.7
		c-0.9-0.1-6.4-0.8-6.4-1.9c0-0.4,4.7-0.8,6.3-1.8c-0.8-3.3-1.5-6.3,1.2-6.3c4.9,0,6.9,0.5,6.9-3.1
		C137.4,87.1,119.8,64.2,119.8,64.2z"/>
	<g>
		<path class="st3" d="M176.5,39.5c4.7-4,7.6-9.2,7.6-14.8c0-12.8-14.5-23.1-32.4-23.1s-32.4,10.3-32.4,23.1
			c0,10,8.9,18.5,21.3,21.7l0.8,10.7c0.1,1.1,1.5,1.5,2.2,0.6l6.9-9.7c5.6,0,12.1-1.2,16.8-3.1l12.8,4.6c1,0.4,1.9-0.7,1.4-1.7
			L176.5,39.5z"/>
	</g>
	<g>
		<path class="st4" d="M133,65.6c0,6.2-3.1,11.8-8.5,11.8c-5.4,0-5.2-1.9-10.3-1.9c-5.2,0,0.5,10.8-5.4,10.8
			c-3.4,0-9.2-9.8-13.2-4.7c-10.4,13.1,12.9,20.8,2.4,28.5c-5.2,3.8-8.7-6.6-11.1-9c-2.4-2.4-7.7-7.2-9.2-14
			c-0.9-4.4,1.5-20.3,11.3-24.1c8.3-3.3,22.5-7.4,32.1-7.4S133,61.1,133,65.6"/>
	</g>
	<g>
		<path class="st1" d="M124.9,84.8c-1,0-1.9-0.8-1.9-1.9c0-1,0.8-1.9,1.9-1.9c1,0,1.9,0.8,1.9,1.9C126.8,84,126,84.8,124.9,84.8"/>
	</g>
	<g>
		<path class="st1" d="M173.5,84.8c-1,0-1.9-0.8-1.9-1.9c0-1,0.8-1.9,1.9-1.9s1.9,0.8,1.9,1.9C175.3,84,174.5,84.8,173.5,84.8"/>
	</g>
	<g>
		<path class="st5" d="M56.3,162c1.8-7.2,6.6-22.1,17.1-22.1c12.7,0,20.7-10.5,21.4-20.6c0,0,2.3,2.1,9.3,2.1s9.2-2,9.2-2
			c0.8,8.9,13.8,17.4,25.1,17.4c10.2,0,17.7,15.6,18.2,25.4c0.3,5.8-32.8,9.9-53.5,9.9C83.3,172.2,54.8,168.1,56.3,162z"/>
	</g>
	<g>
		<path class="st4" d="M227.6,161.3c-1.5-13.6-10.5-47.5-22.8-47.5c-14.9,0-23.2,35.1-25.7,47.3c-0.9,4.1,13.5,6.9,23.2,6.9
			S228.1,165.7,227.6,161.3z"/>
	</g>
	<g>
		<path class="st1" d="M177.2,64.5c1.4-1.1,15.9-10.2,31.5,6c15.5,16.2,24.7,37.2,16.2,46.1c-8.5,8.9-21.8,4.6-33.9-8.1
			C178.8,95.8,175.8,65.6,177.2,64.5"/>
	</g>
</g>
</svg>
