<?xml version="1.0" encoding="utf-8"?>
<!-- Generator: Adobe Illustrator 25.4.1, SVG Export Plug-In . SVG Version: 6.00 Build 0)  -->
<svg version="1.1" id="Layer_1" xmlns="http://www.w3.org/2000/svg" xmlns:xlink="http://www.w3.org/1999/xlink" x="0px" y="0px"
	 viewBox="0 0 1500 500" style="enable-background:new 0 0 1500 500;" xml:space="preserve">
<style type="text/css">
	.st0{fill:#181A46;}
	.st1{fill-rule:evenodd;clip-rule:evenodd;fill:#62ADDA;}
</style>
<path class="st0" d="M124.3,223v27H77v137.9h-30V250H0v-27H124.3z"/>
<path class="st0" d="M226.3,325.9c0,23.3-4.4,39.7-13.3,49.4c-8.9,9.7-24,14.5-45.4,14.6c-21.7,0-37-4.8-45.8-14.3
	c-8.8-9.6-13.2-26.1-13.2-49.7c0-23,4.5-39.4,13.4-49.2c9-9.7,24.1-14.6,45.6-14.6c21.6,0,36.8,4.8,45.6,14.3
	C221.9,286.1,226.3,302.5,226.3,325.9z M137.5,325.7c0,15.3,1.9,25.3,5.7,30.1c3.8,4.8,11.9,7.2,24.4,7.2c12.1,0,20.1-2.4,24-7.3
	c3.9-4.9,6-15,6-30s-1.9-25.5-5.6-30.4c-3.7-4.8-12-7.2-24.3-7.2s-20.4,2.5-24.3,7.5C139.5,300.6,137.5,310.6,137.5,325.7
	L137.5,325.7z"/>
<path class="st0" d="M274.8,425.6h-28.9V264.7h25.1l1.7,11.2h1.3c4.8-4.6,10.4-8,16.7-10.2c7-2.4,14.5-3.6,21.9-3.5
	c16.6,0,28.4,5,35.5,15c7.1,10,10.6,26.2,10.6,48.7c0,22.6-4.4,38.9-13.2,48.9c-8.8,10-23.2,15-43.3,15c-5.2,0-10.3-0.3-15.4-1.1
	c-4.1-0.6-8.1-1.6-12-3L274.8,425.6z M329.8,325.9c0-14.4-1.9-24.3-5.6-29.7c-3.7-5.4-11-8.1-21.8-8.1c-4.9,0-9.9,0.6-14.7,1.7
	c-4.5,1.1-8.8,2.8-12.9,5V359c3.3,1.4,6.8,2.4,10.3,3c4.4,0.7,8.9,1,13.3,1c12.8,0,21.2-2.5,25.2-7.6
	C327.8,350.4,329.8,340.5,329.8,325.9z"/>
<path class="st0" d="M459.3,222.2h28.9v165.5h-25.4l-1.7-11.4h-1.3c-4.7,4.7-10.3,8.2-16.5,10.3c-7.1,2.4-14.5,3.5-22,3.4
	c-16.4,0-28.2-5-35.2-15c-7.1-10-10.6-26.3-10.6-49.1c0-22.4,4.4-38.6,13.1-48.6c8.7-10,23.1-15,43.2-15c5,0,10,0.4,15,1.1
	c4.3,0.6,8.5,1.6,12.6,3L459.3,222.2z M435.6,288.1c-12.8,0-21.2,2.6-25.2,7.7c-4.1,5.2-6.1,15.1-6,30c0,14.4,1.8,24.2,5.4,29.4
	c3.6,5.1,10.9,7.7,22,7.7c5,0,10.1-0.5,15-1.6c4.4-1,8.7-2.6,12.7-4.9v-64.1c-3.5-1.5-7.2-2.6-11-3.2
	C444.2,288.4,439.9,288.1,435.6,288.1L435.6,288.1z"/>
<path class="st0" d="M544.2,390c-12.6,0-21.8-3.1-27.8-9.4c-5.9-6.2-8.9-16-8.8-29.2c0-13.6,3.5-23.2,10.6-28.9
	c7.1-5.7,19.2-8.5,36.4-8.6c4.9,0,9.8,0.2,14.7,0.7c4.4,0.4,8.7,1.1,12.9,2v-10.5c0.5-5.4-1.8-10.7-6-14.2c-4-3-10.3-4.5-18.9-4.5
	c-7.8,0-14.7,0.3-20.8,0.7c-5.8,0.5-11.6,1.3-17.3,2.5v-24.1c6.8-1.6,13.6-2.7,20.5-3.4c7.4-0.7,16.1-1.1,26.3-1.1
	c15.1,0,26.4,3.4,33.9,10.3c7.5,6.9,11.2,17.2,11.2,31v84.1h-26.6l-1.2-10.7h-0.5c-5.6,4.1-11.7,7.4-18.3,9.6
	C557.9,388.7,551.1,389.9,544.2,390z M558.2,334.7c-9,0-15.1,1-18.4,3c-3.3,2.1-5,6-5,11.8s1.3,9.7,4.1,12c2.8,2.3,7.4,3.6,14.1,3.6
	c5.2-0.1,10.3-0.8,15.3-2.1c4.9-1.2,9.6-3,14.1-5.4v-20.9c-4-0.7-7.9-1.2-11.8-1.5c-3.9-0.3-8.2-0.5-12.4-0.5H558.2z"/>
<path class="st0" d="M660.6,387.7h-28.9V264.8h24.9l1.2,12.5h0.7c5.5-5,11.9-8.8,18.8-11.3c7.7-2.6,15.7-3.8,23.8-3.6
	c13.6,0,24,3.4,31.1,10.2c7.1,6.8,10.7,16.9,10.7,30.1v85.1h-28.9v-81.5c0.3-5.2-1.8-10.2-5.8-13.5c-5.1-3.4-11.1-5-17.2-4.6
	c-5.4,0-10.7,0.7-15.9,2.1c-5.1,1.4-10,3.5-14.4,6.4L660.6,387.7z"/>
<path class="st0" d="M792.5,387.7h-28.9V264.8h26.6l1.3,9.2h0.7c5.8-3.7,12-6.6,18.6-8.8c5.6-1.9,11.4-2.9,17.3-3
	c6-0.2,11.9,0.8,17.5,3c4.8,2,8.9,5.3,11.8,9.6h0.7c6.2-4,13-7.2,20-9.4c6.9-2.2,14.1-3.3,21.3-3.4c12,0,21,3.2,27,9.7
	s9,16.1,9,28.9v86.9h-28.9v-83c0.4-4.6-1.3-9.2-4.6-12.4c-4.2-3-9.4-4.4-14.6-4c-4.1,0-8.2,0.5-12.2,1.5c-4,0.9-7.8,2.3-11.5,4
	c0.2,0.9,0.3,1.8,0.3,2.7v91.3h-29.1v-83.1c0.4-4.6-1.3-9.2-4.6-12.4c-4.2-3-9.4-4.4-14.6-4c-3.7,0-7.5,0.5-11.1,1.4
	c-4.2,1-8.4,2.5-12.3,4.3L792.5,387.7z"/>
<path class="st0" d="M990.6,390c-12.6,0-21.9-3.1-27.8-9.4c-5.9-6.2-8.8-16-8.8-29.2c0-13.6,3.5-23.2,10.6-28.9
	c7.1-5.7,19.2-8.5,36.5-8.6c4.9,0,9.8,0.3,14.7,0.7c4.3,0.4,8.7,1.1,12.9,2v-10.5c0.5-5.4-1.8-10.7-6-14.2c-4-3-10.3-4.5-18.9-4.5
	c-7.8,0-14.7,0.3-20.8,0.7c-5.8,0.5-11.6,1.3-17.3,2.5v-24.1c6.8-1.6,13.6-2.7,20.6-3.4c7.4-0.7,16.1-1.1,26.3-1.1
	c15.1,0,26.4,3.4,33.8,10.3c7.5,6.9,11.2,17.2,11.2,31v84.1h-26.6l-1.1-10.7h-0.5c-5.6,4.1-11.7,7.3-18.3,9.6
	C1004.4,388.8,997.5,389.9,990.6,390z M1004.5,334.7c-9,0-15.1,1-18.4,3c-3.3,2.1-5,6-5,11.8c-0.4,4.4,1.1,8.8,4.1,12
	c2.8,2.4,7.4,3.6,14.1,3.6c5.2-0.1,10.3-0.8,15.3-2.1c4.9-1.2,9.6-3,14.1-5.4v-20.9c-4-0.7-7.9-1.2-11.8-1.5
	C1012.9,334.9,1008.8,334.7,1004.5,334.7z"/>
<path class="st0" d="M1107.4,387.7h-28.9V264.8h26.6l1.3,10h0.7c5.9-3.5,12.1-6.4,18.7-8.5c5.9-1.9,12.2-2.9,18.4-3h3.4
	c0.5,0,0.9,0.1,1.4,0.2v27.9c-1.3-0.4-2.6-0.6-3.9-0.6c-1.6,0-4.3,0-8.1,0c-5.4,0-10.9,0.5-16.2,1.5c-4.6,0.9-9.1,2.3-13.4,4.2
	V387.7z"/>
<path class="st0" d="M1195.5,337.2v50.5h-28.9V222.2h28.9v91.7h10.5l36.8-49.1h34.3l-47.1,59.5l49.5,63.5H1244l-37.8-50.5
	L1195.5,337.2z"/>
<path class="st1" d="M1385.7,224c0,0,21.2,2.2,36,15.4c14.8,13.2,18.6,15.8,28.3,17.3c9.7,1.5,15.3,3.7,11.6,9s-14,16.5-44.1,9.7
	c-30.1-6.9-33.7-28.7-34.3-33.4C1382.5,237.3,1380.9,223.1,1385.7,224z"/>
<path class="st1" d="M1365.1,183.9c0,0-20.2,2-27-3c-6.8-5-1.9-12.3-11.2-21.6s-22.6-16.2-23.4-28.8c-0.6-12-0.1-24,1.7-35.8
	c1.1-4.4,9-6.7,15.4-1.7c6.4,4.9,40,24.8,42.3,31.4c2.8,7.9,16.3,5.1,14,16C1375,150.3,1359.1,161.1,1365.1,183.9z"/>
<path class="st1" d="M1377.1,176.2c0,0-1.3-26.3,6.3-32.2c7.6-5.9,23.3-25.3,32.2-34.8c8.8-9.5,22.9-22.5,34.1-20.6s15,3.2,18.5,6.9
	c3.5,3.7,7.3,6.3-3.4,8.4c-10.7,2.1-22.5,2.2-28.9,10.7s-21.4,17.6-26.5,36.6s-9.8,35.4-16.5,34.7
	C1393,185.9,1377.1,180.9,1377.1,176.2z"/>
<path class="st1" d="M1406.5,176.2c9.2-9.5,0.8-5.4,21.8-12.9c21-7.5,32.7-23.4,34-28.7s8-19.9,16.5-21s23.8,4.3,20.7,20.2
	c-4.5,19.3-18,35.2-36.3,42.8c-19.8,7.9-31.2,12.2-45,12S1397.4,185.7,1406.5,176.2z"/>
<path class="st1" d="M1402.6,210.7c-1.8-1.9-2.7-5.4,3-9.4c9.2-6.4,27-14,53.6-3.7c26.7,10.2,45.6,17.4,37.7,25.1
	c-17.7,17.2-17.6,23.4-8,36c9,11.7-9.6,15.4-9.6,15.4s-9.7,2.2-13.4-11.1c-3.7-13.4-6-30.5-14.8-35.2
	C1428.6,215.5,1405.6,213.9,1402.6,210.7z"/>
<path class="st1" d="M1354.9,229.6c-5.9-1.9-12.3-0.1-16.4,4.5c-5.8,6-27,26.4-30,55.7c-3,29.3,10.7,25.7,17.3,25.3
	c6.6-0.4,10.9,0,12.7,3.9c1.8,3.9,9.9,2.6,14.7-3.5c7.5-8.8,15.5-17,24-24.8c6.5-5.8,10-22.9,6.4-32.1c-3-7.6-5.4-8.8-6-9
	c-0.1,0-0.2,0-0.2,0c0,0-10.9,2-15.6,16.5c-4.7,14.4-13.8,28.4-17.6,28.9s-16.1,4.8-12.9-4.8s17.8-21,23.8-28.5
	c6-7.5,11.2-14.7,10.7-23.1C1365.2,230.2,1354.9,229.6,1354.9,229.6z"/>
<path class="st1" d="M1301.9,227.9c-9.7-3.3-22.3-7.4-27-13c-4.7-5.6-13.6-31.4-6.3-34.9s8.4-7.8,18-3.7c9.6,4.1,15,2.2,25.2,3.7
	c9.9,1.4,19.6,4.4,28.7,8.8l5,3c0,0,10.1,6.6,0,8.3c-10.1,1.7-18.8-1-26,1.1c-7.1,2.2-15.2,7.6-5.5,8.6s18.6-3.5,22.4-0.5
	c3.7,2.9,10.7,6,2.2,12C1328.9,228.6,1311.4,231.2,1301.9,227.9z"/>
<path class="st1" d="M1356.4,199.3c-2.3,3-5.5,8.2-5.3,12c0.8,4.4,2.9,8.5,6,11.7c3.3,1.7,7,2.2,10.6,1.6c3.8-1,7.5-2.5,11.1-4.3
	c3.6-2.7,6.8-5.8,9.6-9.4c2.6-3.7,4.2-8,4.5-12.6c-0.3-3,0-7.3-4-9.9c-3.3-2-7-3.2-10.8-3.4C1365.8,184.5,1358,197.3,1356.4,199.3z"
	/>
</svg>
