<?xml version="1.0" encoding="utf-8"?>
<!-- Generator: Adobe Illustrator 25.4.1, SVG Export Plug-In . SVG Version: 6.00 Build 0)  -->
<svg version="1.1" id="Layer_1" xmlns="http://www.w3.org/2000/svg" xmlns:xlink="http://www.w3.org/1999/xlink" x="0px" y="0px"
	 viewBox="0 0 1500 300" style="enable-background:new 0 0 1500 300;" xml:space="preserve">
<style type="text/css">
	.st0{fill:#050FAA;}
</style>
<path class="st0" d="M209.4,212.4c-16.6,17.2-39.4,27-63.2,27.1c-48.7-1.6-87.5-41.7-87.5-90.4s38.7-88.7,87.5-90.4
	c23.9,0.1,46.7,10,63.3,27.2l40.1-40C207.9,4.1,145-8.4,90.3,14.1C35.7,36.8,0,90.1,0,149.2s35.7,112.4,90.3,135.1
	c54.7,22.7,117.5,10.1,159.4-31.8 M437.7,239.5c-36.7,0.5-70.1-21.1-84.6-54.9s-7-72.9,18.7-99c25.8-26.1,64.8-34.1,98.8-20.1
	s56.1,47.1,56,83.8C526.8,198.6,487,238.9,437.7,239.5z M437.7,3c-80.8,0-146.2,65.5-146.2,146.2s65.5,146.2,146.2,146.2
	S583.9,230,583.9,149.2C583.8,68.5,518.3,3.1,437.7,3z M1050.1,81.6l40.9,102.5h-81.7L1050.1,81.6z M988.3,236.7h123.6l20.9,52.5
	h60.3L1073.9,8.8h-47.5L907.1,289.6h60.3L988.3,236.7z M1297.8,101v188.6H1242V8.8h51.4l150.8,188V8.8h55.8v280.8h-51.3L1297.8,101z
	 M748.2,237.3h-50.4V61h50.4c47.6,1.1,85.3,40.5,84.4,88.2c0.9,47.6-36.8,86.9-84.4,87.9V237.3z M889.9,149.2
	C889.8,71.7,827,8.8,749.4,8.8H641.6v280.8h107.9C827,289.5,889.9,226.7,889.9,149.2z"/>
</svg>
