<?xml version="1.0" encoding="utf-8"?>
<!-- Generator: Adobe Illustrator 25.4.1, SVG Export Plug-In . SVG Version: 6.00 Build 0)  -->
<svg version="1.1" id="Layer_1" xmlns="http://www.w3.org/2000/svg" xmlns:xlink="http://www.w3.org/1999/xlink" x="0px" y="0px"
	 viewBox="0 0 1000 300" style="enable-background:new 0 0 1000 300;" xml:space="preserve">
<style type="text/css">
	.st0{fill:#F50A37;}
</style>
<g>
	<g>
		<path d="M673.6,42.5c-85.4,0-102.9,31.9-102.9,78.2c0,46.1,17.4,78,102.9,78c85.7,0,102.6-31.9,102.6-78
			C776.2,74.4,759.3,42.5,673.6,42.5z M673.6,183.1c-60.8,0-66.9-22.5-66.9-62.7c0-39.9,6.1-62.4,66.9-62.4c61.1,0,67,22.5,67,62.4
			C740.5,160.6,734.6,183.1,673.6,183.1z"/>
		<path d="M518.6,152.8c0-38.8-30.5-43.7-78-48c-43.7-4.3-62.7-2.1-62.7-23.6c0-18.2,17.7-21.4,57.3-21.4c28.7,0,56,3.7,68,5.4h1.3
			c1.6,0,3-0.6,3.2-2.4l1.1-8.3c0-0.5,0.3-1.1,0.3-1.6c0-1.6-0.8-3-3.8-3.5c-15.5-2.7-41.8-5.9-71.3-5.9
			c-73.9,0-87.1,17.7-87.1,42.3c0,39.1,35.4,42.3,84.6,47.7c45.6,4.6,55.5,4.3,55.5,23.6c0,19.8-17.2,23.8-60,23.8
			c-27.3,0-62.1-5.6-74.5-7.5h-1.1c-1.6,0-2.9,0.5-3.2,2.4l-1.3,9.7c-0.3,0.5-0.3,1.1-0.3,1.6c0,1.6,0.8,2.7,3.8,3.5
			c4.8,1.1,49.3,7,72.6,7C483.5,197.6,518.6,192,518.6,152.8z"/>
		<path d="M832,190.6c4.8,1.1,49.3,7,72.6,7c60.3,0,95.4-5.6,95.4-44.7c0-38.8-30.5-43.7-78-48c-43.7-4.3-62.7-2.1-62.7-23.6
			c0-18.2,17.7-21.4,57.3-21.4c28.7,0,56,3.8,68,5.4h1.4c1.6,0,2.9-0.6,3.2-2.4l1.1-8.3c0-0.5,0.3-1.1,0.3-1.6c0-1.6-0.8-3-3.7-3.5
			c-15.5-2.7-41.8-5.9-71.3-5.9c-73.9,0-87.1,17.7-87.1,42.3c0,39.1,35.3,42.3,84.6,47.7c45.5,4.6,55.4,4.3,55.4,23.6
			c0,19.8-17.1,23.8-60,23.8c-27.3,0-62.2-5.6-74.5-7.5h-1.1c-1.6,0-2.9,0.5-3.2,2.4l-1.3,9.7c-0.3,0.5-0.3,1.1-0.3,1.6
			C828.3,188.7,829.1,189.8,832,190.6z"/>
		<path d="M352.9,242.2h-3.6c-1.6,0-2,0.4-2,1.9v31c0,1.4,0.4,1.9,2,1.9h3.6c1.6,0,2-0.4,2-1.9v-31
			C354.9,242.6,354.5,242.2,352.9,242.2z"/>
		<path d="M417.1,242.1h-1.5c-1.4,0-1.7,0.4-1.7,2v28.2c0,1.3-0.4,1.4-1.4,1.4c-1.1,0-1.1-0.2-1.9-1.4l-20.4-28.4
			c-0.9-1.3-2.1-1.8-3.6-1.8l-7.9,0.1c-1.9,0-3.6,1.6-3.6,3.6v29.2c0,1.6,0.3,2,1.7,2h1.5c1.4,0,1.6-0.4,1.6-2v-28.2
			c0-1.2,0.4-1.4,1.4-1.4c1.1,0,1.1,0.2,1.9,1.4l20.3,28.4c0.9,1.3,2.1,1.9,3.6,1.9l7.9-0.1c1.8,0,3.5-1.6,3.5-3.6v-29.2
			C418.7,242.5,418.4,242.1,417.1,242.1z"/>
		<path d="M474.2,242.2h-40.8c-1.6,0-2,0.2-2,1.6v0.7c0,1.4,0.4,1.6,2,1.6h15.1c0.9,0,1.5,0,1.5,1.3V275c0,1.4,0.4,1.9,1.9,1.9h3.8
			c1.6,0,2-0.4,2-1.9v-27.7c0-1.3,0.5-1.3,1.5-1.3h15c1.7,0,2-0.2,2-1.6v-0.7C476.2,242.4,475.9,242.2,474.2,242.2z"/>
		<path d="M520.6,242.2h-31.3c-1.9,0-3.6,1.6-3.6,3.6v27.6c0,2,1.7,3.6,3.6,3.6h31.3c1.8,0,2-0.2,2-1.6v-0.6c0-1.4-0.3-1.6-2-1.6
			h-25.7c-0.9,0-1.5,0-1.5-1.3v-10.4c0-1.3,0.6-1.3,1.5-1.3h18.3c1.7,0,2-0.2,2-1.6V258c0-1.4-0.2-1.5-2-1.5h-18.3
			c-0.9,0-1.5,0-1.5-1.3v-7.9c0-1.3,0.6-1.3,1.5-1.3h25.7c1.7,0,2-0.2,2-1.6v-0.6C522.6,242.4,522.3,242.2,520.6,242.2z"/>
		<path d="M568.3,262c-1.3-0.2-1.8-0.3-1.8-1.4c0-1.1,0.6-1.1,1.8-1.4c5.2-1.2,8.2-2.9,8.2-7.9c0-7.5-6.3-9.1-15-9.1h-22.6
			c-1.9,0-3.6,1.6-3.6,3.5V275c0,1.4,0.4,1.9,2,1.9h3.7c1.6,0,2-0.4,2-1.9v-11.2c0-1.2,0.5-1.3,1.5-1.3l12.5,0.2
			c7.4,0.2,11.5,1.7,11.8,6l0.4,6.3c0.1,1.4,0.7,1.9,2.2,1.9h3.7c1.4,0,2.2-0.4,2.2-1.6V275l-0.4-5.5
			C576.6,263.6,572.3,262.6,568.3,262z M556.4,259l-12,0.3c-1,0-1.5-0.1-1.5-1.3v-11.1c0-1.3,0.5-1.3,1.5-1.3h14.7
			c6.8,0,8.8,2.2,8.8,6.6C568,257.8,563.8,258.8,556.4,259z"/>
		<path d="M637.8,242.1h-1.5c-1.4,0-1.7,0.4-1.7,2v28.2c0,1.3-0.4,1.4-1.4,1.4c-1.1,0-1.1-0.2-1.9-1.4L611,243.9
			c-0.9-1.3-2.1-1.8-3.5-1.8l-8,0.1c-1.9,0-3.6,1.6-3.6,3.6v29.2c0,1.6,0.3,2,1.7,2h1.5c1.4,0,1.6-0.4,1.6-2v-28.2
			c0-1.2,0.4-1.4,1.4-1.4c1.1,0,1.1,0.2,1.9,1.4l20.3,28.4c0.9,1.3,2.1,1.9,3.6,1.9l8-0.1c1.8,0,3.5-1.6,3.5-3.6v-29.2
			C639.5,242.5,639.2,242.1,637.8,242.1z"/>
		<path d="M683.2,244.2c-0.8-1.3-1.9-2.1-3.5-2.1H672c-1.7,0-2.8,0.8-3.6,2.2l-18.1,30.6c-0.3,0.4-0.4,0.8-0.4,1.1
			c0,0.6,0.5,0.9,1.4,1l2.7,0.1c1.3,0.1,1.4-0.6,1.9-1.4l4-7.4c0.6-1.1,0.9-1.2,2.1-1.2h24.9c1.2,0,1.4,0.1,2.1,1.2l4,7.4
			c0.4,0.8,0.9,1.5,2.2,1.4l4.8-0.1c1.3-0.1,1.7-0.6,1.7-1.1c0-0.3-0.1-0.6-0.3-0.9L683.2,244.2z M684.7,263.4h-20.8
			c-0.8,0-1.1-0.7-0.8-1.4l9-15.5c0.6-1.1,0.9-1.2,2.1-1.2c1.2,0,1.6,0.1,2.1,1.2l9.1,15.5C685.8,262.7,685.5,263.4,684.7,263.4z"/>
		<path d="M747.7,242.2h-40.8c-1.6,0-2,0.2-2,1.6v0.7c0,1.4,0.4,1.6,2,1.6h15.1c0.9,0,1.5,0,1.5,1.3V275c0,1.4,0.4,1.9,1.9,1.9h3.8
			c1.6,0,2-0.4,2-1.9v-27.7c0-1.3,0.5-1.3,1.5-1.3h15c1.7,0,2-0.2,2-1.6v-0.7C749.7,242.4,749.4,242.2,747.7,242.2z"/>
		<path d="M767,242.2h-3.6c-1.6,0-2,0.4-2,1.9v31c0,1.4,0.4,1.9,2,1.9h3.6c1.6,0,2-0.4,2-1.9v-31C769,242.6,768.6,242.2,767,242.2z"
			/>
		<path d="M809.9,241.3c-20,0-24,7.5-24,18.3c0,10.8,4.1,18.2,24,18.2c20,0,24-7.5,24-18.2C833.9,248.7,829.9,241.3,809.9,241.3z
			 M809.9,274.2c-14.2,0-15.6-5.3-15.6-14.6c0-9.3,1.4-14.6,15.6-14.6c14.3,0,15.7,5.3,15.7,14.6
			C825.5,268.9,824.2,274.2,809.9,274.2z"/>
		<path d="M847.4,245.7v29.2c0,1.6,0.3,2,1.7,2h1.5c1.4,0,1.6-0.4,1.6-2v-28.2c0-1.2,0.4-1.4,1.4-1.4c1.1,0,1.1,0.2,1.9,1.4
			l20.4,28.4c0.9,1.3,2.1,1.9,3.6,1.9l8-0.1c1.8,0,3.5-1.6,3.5-3.6v-29.2c0-1.6-0.3-2-1.6-2h-1.5c-1.4,0-1.7,0.4-1.7,2v28.2
			c0,1.3-0.4,1.4-1.4,1.4c-1.1,0-1.1-0.2-1.9-1.4l-20.3-28.4c-0.9-1.3-2.1-1.8-3.6-1.8l-8,0.1C849.1,242.2,847.4,243.7,847.4,245.7"
			/>
		<path d="M934.7,244.2c-0.8-1.3-1.9-2.1-3.5-2.1h-7.8c-1.7,0-2.8,0.8-3.6,2.2l-18.1,30.6c-0.2,0.4-0.4,0.8-0.4,1.1
			c0,0.6,0.5,0.9,1.4,1l2.7,0.1c1.3,0.1,1.4-0.6,1.9-1.4l4-7.4c0.6-1.1,0.9-1.2,2.1-1.2h24.8c1.2,0,1.4,0.1,2.1,1.2l4,7.4
			c0.4,0.8,0.9,1.5,2.3,1.4l4.8-0.1c1.3-0.1,1.7-0.6,1.7-1.1c0-0.3-0.1-0.6-0.2-0.9L934.7,244.2z M936.2,263.4h-20.9
			c-0.8,0-1.1-0.7-0.8-1.4l9-15.5c0.6-1.1,0.9-1.2,2.1-1.2c1.2,0,1.6,0.1,2.1,1.2l9.1,15.5C937.3,262.7,937,263.4,936.2,263.4z"/>
		<path d="M997.5,273h-23.2c-0.9,0-1.5,0-1.5-1.3v-27.7c0-1.4-0.4-1.9-2-1.9h-3.7c-1.6,0-2,0.4-2,1.9v29.3c0,2,1.7,3.6,3.6,3.6h28.9
			c1.8,0,2-0.2,2-1.6v-0.8C999.5,273.2,999.1,273,997.5,273z"/>
	</g>
	<g>
		<path class="st0" d="M86.6,49.8l-7.4-18.1c-0.1-0.1-0.1-0.2-0.2-0.2c-0.1-0.1-0.2-0.1-0.3,0c-7,2.9-13.5,6.4-19.7,10.3
			c-0.1,0.1-0.2,0.2-0.2,0.3c0,0.1,0,0.2,0.1,0.3l11,16.2c0.1,0.2,0.3,0.2,0.5,0.2c0,0,0.1,0,0.1,0c5-3.2,10.3-6,15.9-8.4
			C86.6,50.3,86.7,50,86.6,49.8z"/>
		<path class="st0" d="M58.3,67l-12.5-15c-0.1-0.1-0.2-0.2-0.3-0.2c-0.1,0-0.2,0-0.3,0.1c-5.7,4.9-10.9,10.2-15.6,15.9
			c-0.1,0.1-0.1,0.2-0.1,0.3c0,0.1,0.1,0.2,0.2,0.3L45,80.5c0.2,0.1,0.4,0.1,0.5,0c0,0,0.1-0.1,0.1-0.1c3.8-4.6,8-8.9,12.6-12.8
			C58.4,67.5,58.4,67.2,58.3,67z"/>
		<path class="st0" d="M119.3,42.1L118,22.6c0-0.1-0.1-0.2-0.1-0.3c-0.1-0.1-0.2-0.1-0.3-0.1c-7.5,0.6-14.9,1.8-22,3.6
			c-0.1,0-0.2,0.1-0.3,0.2c-0.1,0.1-0.1,0.2,0,0.3l5.3,18.8c0.1,0.2,0.2,0.3,0.4,0.3c0,0,0.1,0,0.1,0c5.8-1.4,11.7-2.4,17.8-2.9
			C119.2,42.5,119.3,42.3,119.3,42.1z"/>
		<path class="st0" d="M220.5,236.2c0.1,0.1,0.2,0.1,0.3,0.1h0c0.1,0,0.2-0.1,0.3-0.1c20.9-22.6,33.8-52.7,34-85.9
			c0.2-24.6-6.7-47.6-18.6-67.2c-0.1-0.1-0.2-0.2-0.3-0.2c-0.1,0-0.2,0-0.3,0.1l-16.4,10.6c-0.2,0.1-0.3,0.4-0.1,0.6
			c9.9,16.3,15.5,35.5,15.4,56c-0.2,27.7-10.8,52.9-28.2,71.8c-0.2,0.2-0.2,0.4,0,0.6L220.5,236.2z"/>
		<path class="st0" d="M0,148.4c-0.2,34.3,13.2,65.6,35.1,88.7c0.1,0.1,0.2,0.1,0.3,0.1h0c0.1,0,0.2,0,0.3-0.1l14-13.6
			c0.2-0.2,0.2-0.4,0-0.6c-18.3-19.4-29.5-45.5-29.3-74.3c0.1-20.1,5.8-38.8,15.5-54.8c0.1-0.2,0.1-0.5-0.1-0.6
			c-5.3-3.4-11.5-7.3-16.5-10.5c-0.1-0.1-0.2-0.1-0.3-0.1c-0.1,0-0.2,0.1-0.3,0.2C7,101.9,0.2,124.3,0,148.4z"/>
		<path class="st0" d="M49.1,249.8c0,0.1,0.1,0.2,0.2,0.3c21.3,16.6,48,26.7,77.2,27c30.3,0.3,58.2-10,80.2-27.4
			c0.1-0.1,0.2-0.2,0.2-0.3c0-0.1,0-0.2-0.1-0.3l-13.1-14.5c-0.2-0.2-0.4-0.2-0.6-0.1c-18.4,14.1-41.4,22.4-66.4,22.2
			c-24-0.2-46-8.3-63.7-21.8c-0.2-0.1-0.4-0.1-0.6,0.1l-13.1,14.5C49.1,249.5,49.1,249.6,49.1,249.8z"/>
		<path class="st0" d="M168.3,49.7l7.4-18.1c0.1-0.1,0.1-0.2,0.2-0.2c0.1,0,0.2,0,0.3,0c7,2.9,13.5,6.4,19.7,10.3
			c0.1,0.1,0.2,0.2,0.2,0.3c0,0.1,0,0.2-0.1,0.3l-11,16.1c-0.1,0.2-0.3,0.2-0.5,0.2c0,0-0.1,0-0.1,0c-5-3.2-10.3-6-15.9-8.4
			C168.3,50.2,168.3,50,168.3,49.7z"/>
		<path class="st0" d="M196.9,67l12.6-15c0.1-0.1,0.2-0.2,0.3-0.2c0.1,0,0.2,0,0.3,0.1c5.7,4.9,10.9,10.2,15.6,15.9
			c0.1,0.1,0.1,0.2,0.1,0.3c0,0.1-0.1,0.2-0.2,0.3l-15.4,12.1c-0.2,0.1-0.4,0.1-0.5,0c0,0-0.1-0.1-0.1-0.1c-3.8-4.6-8-8.9-12.7-12.8
			C196.8,67.5,196.8,67.2,196.9,67z"/>
		<path class="st0" d="M135.6,42.1l1.3-19.5c0-0.1,0-0.2,0.1-0.3c0.1-0.1,0.2-0.1,0.3-0.1c7.5,0.6,14.8,1.8,21.9,3.6
			c0.1,0,0.2,0.1,0.3,0.2c0.1,0.1,0.1,0.2,0,0.3l-5.3,18.8c0,0.2-0.2,0.3-0.4,0.3c0,0-0.1,0-0.1,0c-5.7-1.4-11.7-2.4-17.8-2.9
			C135.8,42.5,135.6,42.3,135.6,42.1z"/>
	</g>
</g>
</svg>
